<?xml version="1.0" encoding="utf-8"?>
<!-- Generator: Adobe Illustrator 15.0.0, SVG Export Plug-In . SVG Version: 6.00 Build 0)  -->
<!DOCTYPE svg PUBLIC "-//W3C//DTD SVG 1.1//EN" "http://www.w3.org/Graphics/SVG/1.1/DTD/svg11.dtd">
<svg version="1.1" id="Layer_1" xmlns="http://www.w3.org/2000/svg" xmlns:xlink="http://www.w3.org/1999/xlink" x="0px" y="0px"
	 width="63.8px" height="76px" viewBox="0 0 63.8 76" enable-background="new 0 0 63.8 76" xml:space="preserve">
<path fill="#EEE6D2" d="M36.7,68.5c0-0.2,0-0.4,0-0.7c0-8.9,0-17.8,0-26.7v-0.4c0.1,0,0.3,0,0.4,0c2.8,0,5.6,0,8.4,0
	c0.6,0,0.6,0,0.6-0.6c0.2-1.5,0.4-3,0.6-4.5c0.2-1.8,0.5-3.6,0.7-5.4c0.1-0.4,0-0.4-0.4-0.4c-3.3,0-6.6,0-9.9,0h-0.4
	c0-0.1,0-0.2,0-0.2c0-2.3,0-4.6,0-6.8c0-0.6,0.1-1.3,0.2-1.9c0.3-1.5,1.2-2.5,2.7-2.9c0.8-0.2,1.6-0.3,2.4-0.3c1.8,0,3.6,0,5.4,0
	c0.3,0,0.4-0.1,0.4-0.4c0-1.6,0-3.3,0-4.9c0-1.4,0-2.8,0-4.2c0-0.2-0.1-0.3-0.3-0.3c-0.4,0-0.9-0.1-1.3-0.1c-2.4-0.1-4.7-0.2-7-0.2
	c-2.1,0-4,0.3-6,1.1c-2.8,1.2-4.9,3.2-6.3,5.9c-1,2-1.4,4.2-1.5,6.5c0,2.8,0,5.6,0,8.4c0,0.1,0,0.2,0,0.3c-0.2,0-0.3,0-0.4,0
	c-2.9,0-5.8,0-8.6,0c-0.3,0-0.4,0.1-0.4,0.4c0,3.4,0,6.7,0,10.1c0,0.4,0,0.4,0.4,0.4c2.9,0,5.7,0,8.6,0h0.4c0,0.1,0,0.2,0,0.3
	c0,9,0,18,0,27c0,0.1,0,0.3,0,0.4"/>
</svg>
