<?xml version="1.0" encoding="utf-8"?>
<!-- Generator: Adobe Illustrator 15.0.0, SVG Export Plug-In . SVG Version: 6.00 Build 0)  -->
<!DOCTYPE svg PUBLIC "-//W3C//DTD SVG 1.1//EN" "http://www.w3.org/Graphics/SVG/1.1/DTD/svg11.dtd">
<svg version="1.1" id="Layer_1" xmlns="http://www.w3.org/2000/svg" xmlns:xlink="http://www.w3.org/1999/xlink" x="0px" y="0px"
	 width="313.8px" height="313.8px" viewBox="0 0 313.8 313.8" enable-background="new 0 0 313.8 313.8" xml:space="preserve">
<g>
	<circle fill="#EAB766" cx="156.9" cy="156.9" r="148.5"/>
	<path fill="#EEE6D2" d="M117,192.2c-11.2,0-20.2,9.1-20.2,20.2c0,11.1,9,20.2,20.2,20.2c11.2,0,20.2-9.1,20.2-20.2
		C137.2,201.3,128.2,192.2,117,192.2L117,192.2z M117,222.6c-5.6,0-10.1-4.6-10.1-10.1c0-5.6,4.5-10.1,10.1-10.1
		c5.6,0,10.1,4.5,10.1,10.1C127.1,218,122.6,222.6,117,222.6L117,222.6z M269.4,177.3v21.6c0,5.4-4.4,9.8-9.7,9.8h-10.4
		c-1.9-12.9-13-22.9-26.5-22.9c-13.4,0-24.6,9.9-26.5,22.9h-52.9c-1.9-12.9-13-22.9-26.5-22.9c-13.4,0-24.6,9.9-26.4,22.9H77.4
		c-5.4,0-9.7-4.4-9.7-9.8v-21.6H269.4z M222.8,192.2c-11.2,0-20.2,9.1-20.2,20.2c0,11.1,9.1,20.2,20.2,20.2
		c11.1,0,20.2-9.1,20.2-20.2C243,201.3,233.9,192.2,222.8,192.2L222.8,192.2z M222.8,222.6c-5.6,0-10.1-4.6-10.1-10.1
		c0-5.6,4.5-10.1,10.1-10.1c5.6,0,10.1,4.5,10.1,10.1C232.9,218,228.3,222.6,222.8,222.6L222.8,222.6z M265.6,155.6l-38.3-37.9
		c-2.4-2.4-5.7-3.8-9.1-3.8h-19.3v-7.2c0-5.4-4.4-9.7-9.7-9.7H77.6c-5.4,0-9.7,4.4-9.7,9.7v1.5l-39.6,4.6l70.1,9.1l-71,7.1
		l70.8,10.1l-70.8,6.1l40.5,7.6V172h201.7v-7.1C269.4,161.3,268,158,265.6,155.6L265.6,155.6z M248.9,156.8h-37.1
		c-0.8,0-1.5-0.7-1.5-1.5v-28.6c0-0.8,0.7-1.5,1.5-1.5h7.1c0.4,0,0.8,0.2,1.1,0.4l30,28.6C250.9,155.1,250.2,156.8,248.9,156.8
		L248.9,156.8z"/>
</g>
</svg>
