<?xml version="1.0" encoding="utf-8"?>
<!-- Generator: Adobe Illustrator 15.0.0, SVG Export Plug-In . SVG Version: 6.00 Build 0)  -->
<!DOCTYPE svg PUBLIC "-//W3C//DTD SVG 1.1//EN" "http://www.w3.org/Graphics/SVG/1.1/DTD/svg11.dtd">
<svg version="1.1" id="Layer_1" xmlns="http://www.w3.org/2000/svg" xmlns:xlink="http://www.w3.org/1999/xlink" x="0px" y="0px"
	 width="72px" height="76px" viewBox="0 0 72 76" enable-background="new 0 0 72 76" xml:space="preserve">
<g>
	<path fill="#EEE6D2" d="M19.8,10.5h0.6c0.3,0.1,0.4,0.3,0.4,0.6c0,0.1,0,0.2,0,0.3c0,1.7,0,3.4,0,5.1c0,1.9,0,3.8,0,5.7
		c0,0.5,0,1,0,1.6c0,0.3,0.1,0.5,0.4,0.5c0.4,0,0.9,0,1.3-0.1c0.2,0,0.4-0.2,0.4-0.4c0-0.2,0-0.3,0-0.5c0-0.6,0-1.2,0-1.8
		c0-3.4,0-6.8,0-10.3c0-0.4,0-0.5,0.4-0.6h24.9c0.1,0,0.1,0,0.2,0c1.5,0,3,0,4.4,0c0.7,0,1.5,0.1,2.2,0.3c2.3,0.6,4.2,1.8,5.7,3.5
		c1.2,1.4,2,3.1,2.4,4.9c0.2,1,0.2,2,0.2,3c0,2,0,3.9,0,5.9c0,0.3-0.1,0.4-0.4,0.4c-0.1,0-0.1,0-0.2,0c-5.4,0-10.9,0-16.3,0
		c-0.4,0-0.6-0.1-0.9-0.4c-0.7-0.7-1.5-1.3-2.4-1.8c-3-1.8-6.3-2.5-9.8-1.8c-2.7,0.5-5.1,1.7-7.1,3.6c-0.3,0.2-0.6,0.4-0.9,0.4
		c-5.5,0-11,0-16.4,0c-0.3,0-0.4-0.1-0.4-0.4c0-0.5,0-1,0-1.5c0-2.1-0.1-4.1,0.1-6.2C8.7,19.1,9,18,9.5,16.9c0.8-1.7,2-3.1,3.5-4.3
		h0.1c0,0,0,0,0,0.1c0,3.3,0,6.5,0,9.8c0,0.5,0,0.9,0,1.4c0,0.3,0.1,0.4,0.4,0.4c0.4,0,0.8,0,1.2-0.1c0.3,0,0.4-0.2,0.4-0.5
		c0-0.2,0-0.3,0-0.5c0-3.7,0-7.4,0-11.1c0-0.1,0-0.2,0-0.2c-0.1-0.4,0-0.4,0.3-0.6c0.3-0.2,0.7-0.3,1-0.3c0.3,0,0.3,0.1,0.3,0.3
		c0,0.1,0,0.2,0,0.3c0,3.3,0,6.7,0,10c0,0.7,0,1.5,0,2.2c0,0.3,0.1,0.5,0.4,0.5c0.4,0,0.8,0,1.2,0s0.5-0.2,0.6-0.6
		c0-0.2,0-0.4,0-0.6c0-2,0-3.9,0-5.9c0-1.9,0-3.9,0-5.8C19.3,10.6,19.4,10.5,19.8,10.5 M49.3,19.6L49.3,19.6c0,1,0,2,0,3.1
		c0,1,0.7,1.7,1.7,1.7c1.9,0,3.9,0,5.8,0c1,0,1.7-0.7,1.7-1.7c0-2,0-4,0-5.9c0-1-0.7-1.7-1.7-1.7c-1.9,0-3.9,0-5.8,0
		c-1,0-1.7,0.7-1.7,1.7C49.2,17.6,49.3,18.6,49.3,19.6"/>
	<path fill="#EEE6D2" d="M24.7,30c-2.1,3.2-3,6.6-2.4,10.4c0.5,3.3,2,6.1,4.6,8.3c5.1,4.4,12.3,4.7,17.6,0.7c3-2.3,4.8-5.3,5.4-9
		c0.6-3.7-0.3-7.1-2.4-10.3h0.2c4.5,0,9.1,0,13.6,0c0.5,0,1,0,1.5,0c0.1,0,0.2,0,0.3,0c0.2,0,0.4,0.1,0.4,0.4s0,0.6,0,0.9
		c0,2.3,0,4.6,0,6.8c0,5.6,0,11.1,0,16.7c0,2.7-1,5.1-2.8,7.1c-1.6,1.8-3.6,2.9-6,3.3c-0.6,0.1-1.2,0.2-1.8,0.2
		c-11.1,0-22.3,0-33.4,0c-5,0-9.2-3.4-10.4-8.1c-0.2-1-0.3-1.9-0.3-2.9c0-5.2,0-10.4,0-15.5c0-2.7,0-5.3,0-7.9c0-0.1,0-0.2,0-0.4
		c0-0.3,0.2-0.5,0.5-0.5c0.4,0,0.7,0,1.1,0c4.7,0,9.4,0,14.2,0h0.1V30z"/>
	<path fill="#EEE6D2" d="M36.2,27.5c6,0,10.8,4.8,10.8,10.8S42.2,49,36.2,49s-10.8-4.8-10.8-10.8C25.3,32.2,30.2,27.5,36.2,27.5
		 M44.1,38.4c0-4.4-3.4-8.1-8.1-8.1c-4.4,0.1-8,3.7-7.8,8.1c0.1,4.4,3.7,7.9,8.2,7.8C40.6,46,44.2,42.5,44.1,38.4"/>
</g>
</svg>
