<?xml version="1.0" encoding="utf-8"?>
<!-- Generator: Adobe Illustrator 15.0.0, SVG Export Plug-In . SVG Version: 6.00 Build 0)  -->
<!DOCTYPE svg PUBLIC "-//W3C//DTD SVG 1.1//EN" "http://www.w3.org/Graphics/SVG/1.1/DTD/svg11.dtd">
<svg version="1.1" id="Layer_1" xmlns="http://www.w3.org/2000/svg" xmlns:xlink="http://www.w3.org/1999/xlink" x="0px" y="0px"
	 width="490.5px" height="403.9px" viewBox="0 0 490.5 403.9" enable-background="new 0 0 490.5 403.9" xml:space="preserve">
<g>
	<g>
		<path fill="#FFFFFF" stroke="#FFFFFF" stroke-width="1.8375" stroke-miterlimit="10" d="M222.4,105.3v47.2h-3.6v-47.2H210v-3.1
			h21.3v3.1H222.4z"/>
		<path fill="#FFFFFF" stroke="#FFFFFF" stroke-width="1.8375" stroke-miterlimit="10" d="M252.5,152.5v-24.9h-13v24.9h-3.4v-50.4
			h3.4v22.4h13v-22.4h3.5v50.4H252.5z"/>
		<path fill="#FFFFFF" stroke="#FFFFFF" stroke-width="1.8375" stroke-miterlimit="10" d="M267.8,105.3v19.4h11.8v3.1h-11.8v21.6
			h14.3v3.1h-17.8v-50.4h17.8v3.1L267.8,105.3L267.8,105.3z"/>
		<path fill="#EAB766" d="M84.7,251.5c-3,2.9-7.4,4.7-16.4,4.7c-10.6,0-16.4-2.7-19-7.4c-1.7-3.2-1.8-7.3-1.8-10.8v-4h15.9v5.3
			c0,1.5,0,5.3,4.7,5.3c4.5,0,5.1-2.5,5.1-4.6c0-2.7-0.1-4.1-0.8-5.3c-0.8-1.4-2.4-2.5-5.3-4.6l-9.6-7c-1.7-1.2-3.4-2.4-5-3.8
			c-2.7-2.5-4.3-5.4-4.3-12.5c0-1,0-3.1,0.4-5.7c0.3-2.4,1-8.6,7.7-11.5c3.6-1.6,8.8-2,12.6-2c3,0,5.7,0.2,8.8,0.8
			c5.5,1.2,7.3,4.1,8.4,6.4c2,4.4,1.7,9.7,1.6,14.4H72.5v-4.7c0-3.4-0.4-5.6-4.5-5.6c-0.5,0-1.5,0-2.5,0.8c-1.6,1.1-1.4,3.5-1.4,5.2
			c0,1.8-0.1,3.5,0.9,4.9c0.4,0.6,0.9,1,2.1,1.9l13.6,9.5c0.8,0.5,2.8,1.8,4.7,3.7c2.6,2.6,3.9,5.6,3.9,12.7
			C89.3,242.8,88.7,247.7,84.7,251.5z"/>
		<path fill="#EAB766" d="M123.9,255.3l-2.3-15.2h-12.3l-2.4,15.2H91.2l13.5-66.5h21.4l13.5,66.5H123.9z M115.6,199.4l-4.5,29.6h8.9
			L115.6,199.4z"/>
		<path fill="#EAB766" d="M171.9,255.3L158.1,212v43.3h-13.6v-66.5h15.9l13.9,43.1v-43.1h13.8v66.5H171.9z"/>
		<path fill="#EAB766" d="M237.2,250.6c-3.7,4.4-9.6,4.7-14.8,4.7h-24.9v-66.5h24.3c0.5,0,4.7,0,7.4,0.6c1.8,0.4,6.1,1.5,8.8,5.8
			c1.5,2.4,2.2,4.7,2.2,10.2v33.1C240.2,242.7,240,247.2,237.2,250.6z M224,206.4c0-0.1,0.1-1.7-0.2-2.6c-0.9-3.7-5-3.4-5.8-3.4
			h-4.9v43.5h5.1c1.7,0,2-0.1,2.9-0.4c2.7-0.8,2.9-3,2.9-5.3V206.4L224,206.4z"/>
		<path fill="#EAB766" d="M311.8,255.3H291l-9-52l-8.7,52h-20.9l-8.5-66.5h15.3l5.2,52.9l8.1-52.9H291l9.5,52.7l3.9-52.7h15.4
			L311.8,255.3z"/>
		<path fill="#EAB766" d="M324.8,255.3v-66.5h16.1v66.5H324.8z"/>
		<path fill="#EAB766" d="M387.5,251.6c-4.6,4.3-11.7,4.5-17.5,4.5c-8.4,0-12.7-1.4-15.8-4c-0.7-0.5-2.1-1.7-3.1-3.8
			c-1.1-2.3-1.6-4.4-1.6-9.3v-32.8c0-5.3,0.5-9.5,4.4-13.4c3-3,7.7-5.3,16.7-5.3c11.7,0,17.4,3.9,19.8,8.9c1.4,2.9,1.5,5.7,1.5,8.8
			v8h-15.8v-8.4c0-0.9,0-1.8-0.2-2.7c-0.7-2.7-3-3.1-5.4-3.1c-1.2,0-2.3,0.1-3.2,0.8c-2.1,1.4-1.8,4.9-1.8,5.3v33
			c0,4.2,0.6,6.6,5.4,6.6c0.2,0,1.4,0,2.4-0.3c2.8-1,2.7-4,2.7-6.3v-8.3h16.3v5.9C392.2,241.6,392.1,247.4,387.5,251.6z"/>
		<path fill="#EAB766" d="M426.8,255.3v-27.8h-11.2v27.9h-16v-66.5h16v26.8h11.2v-26.8h16.1v66.5h-16.1V255.3z"/>
		<path fill="#FFFFFF" stroke="#FFFFFF" stroke-width="1.225" stroke-miterlimit="10" d="M184.7,358.1v-32.9h-17.1v32.9h-4.5v-66.5
			h4.5v29.6h17.1v-29.6h4.6v66.5H184.7z"/>
		<path fill="#FFFFFF" stroke="#FFFFFF" stroke-width="1.225" stroke-miterlimit="10" d="M224.8,353.2c-1.4,2.4-4.9,5.7-11.7,5.7
			c-1.3,0-7.1-0.1-10.4-4c-2.6-3.3-2.9-7.1-2.9-11v-37.5c0-0.8,0-4.5,1-7.5c1.9-5.6,7.1-8.1,12.7-8c3,0,6,0.7,8.5,2.4
			c4.7,3.6,4.7,9.3,4.7,14.5v36.7C226.8,347.6,226.5,350.5,224.8,353.2z M222.3,310.4c0-5.6-0.3-8.7-1.6-11.2
			c-0.4-0.8-1.1-2.2-3-3.1c-0.7-0.4-2.3-1-4.4-1c-2.6,0-4.3,0.9-5.1,1.4c-4,2.6-3.9,7.9-3.9,9v36.6c0,3.8,0.2,5.8,0.8,7.5
			c0.7,1.8,3,5.2,8.3,5.2c1.9,0,3.7-0.5,5.2-1.6c3.6-2.5,3.8-6.6,3.8-10.4L222.3,310.4L222.3,310.4L222.3,310.4z"/>
		<path fill="#FFFFFF" stroke="#FFFFFF" stroke-width="1.225" stroke-miterlimit="10" d="M262.9,351.6c-2.7,7.3-10.4,7.6-12.4,7.6
			c-1,0-5.3-0.1-8.4-2.4c-0.8-0.6-1.5-1.3-2.1-2.2c-2.8-3.8-2.6-7.9-2.6-12.2v-50.7h4.5v51.5c0,4.3,0.4,6.6,1.5,8.4
			c1,1.6,3.2,3.4,7.3,3.4c0.7,0,3.5,0,5.5-1.6c3.1-2.4,3-5.9,3-12.8v-48.9h4.6V345C263.8,347.2,263.7,349.5,262.9,351.6z"/>
		<path fill="#FFFFFF" stroke="#FFFFFF" stroke-width="1.225" stroke-miterlimit="10" d="M298.4,354.2c-1.6,2.4-4.9,4.9-11.3,4.9
			c-2.5,0-5.6-0.5-7.6-1.6c-0.5-0.3-1.2-0.8-2.2-1.6c-1.5-1.3-2.5-2.8-3.3-4.8c-0.7-1.9-0.8-3.4-0.8-5.4v-9.4h4.6v5.4
			c0,1.4-0.1,2.7,0,4.1c0.2,3.2,1.2,9.2,9.8,9.2c0.8,0,2.8,0,4.8-1.2c2.4-1.4,3.7-4.2,3.7-9.7c0-5.2-1.1-7.5-2.4-9.5
			c-2.4-3.8-6.9-8-7.5-8.6c-3.9-3.8-6.2-6.4-7.6-8.4c-1.6-2.2-3.8-5.9-3.8-12.3c0-0.4,0-3.1,0.4-5c0.7-3.8,2.8-9.7,12.1-9.7
			c1,0,4.8,0,7.8,1.9c4.6,3,4.6,8.7,4.6,13.5v4.8h-4.5v-5.9c0-2.4,0-3.1-0.3-4.4c-0.4-2.3-1.8-5.8-7.5-5.8c-0.7,0-2.8,0-4.7,1.1
			c-2.1,1.3-3.3,4-3.3,8.8c0,6.3,1.7,8.8,5.7,13.5c1.4,1.7,2.9,3.3,4.5,5c2.4,2.4,4.7,4.6,6.8,7.2c3.3,4.1,4.2,7.8,4.2,13.1
			C300.7,349,299.7,352.3,298.4,354.2z"/>
		<path fill="#FFFFFF" stroke="#FFFFFF" stroke-width="1.225" stroke-miterlimit="10" d="M314.7,295.8v25.6h15.6v4h-15.6v28.5h18.9
			v4.1h-23.4v-66.5h23.5v4.1h-19V295.8z"/>
	</g>
	<g>
		<path fill="#EAB766" d="M0,403.9V170.2l1.9-1.3L248.8,0l241.7,170.3v233L0,403.9z M8.8,174.9v220.2l472.8-0.6V174.9L248.7,10.8
			L8.8,174.9z"/>
	</g>
</g>
</svg>
