<?xml version="1.0" encoding="utf-8"?>
<!-- Generator: Adobe Illustrator 15.0.0, SVG Export Plug-In . SVG Version: 6.00 Build 0)  -->
<!DOCTYPE svg PUBLIC "-//W3C//DTD SVG 1.1//EN" "http://www.w3.org/Graphics/SVG/1.1/DTD/svg11.dtd" [
	<!ENTITY ns_flows "http://ns.adobe.com/Flows/1.0/">
	<!ENTITY ns_extend "http://ns.adobe.com/Extensibility/1.0/">
	<!ENTITY ns_ai "http://ns.adobe.com/AdobeIllustrator/10.0/">
	<!ENTITY ns_graphs "http://ns.adobe.com/Graphs/1.0/">
]>
<svg version="1.1" id="Layer_1" xmlns:x="&ns_extend;" xmlns:i="&ns_ai;" xmlns:graph="&ns_graphs;"
	 xmlns="http://www.w3.org/2000/svg" xmlns:xlink="http://www.w3.org/1999/xlink" xmlns:a="http://ns.adobe.com/AdobeSVGViewerExtensions/3.0/"
	 x="0px" y="0px" width="60px" height="60px" viewBox="0 0 60 60" enable-background="new 0 0 60 60" xml:space="preserve">
<path fill="#EEE7D3" d="M47.8,23.4H36.7V12.3c0-3.6-3-6.6-6.6-6.6c-3.7,0-6.6,2.9-6.6,6.6v11.1H12.3c-3.6,0-6.6,3-6.6,6.6
	c0,3.7,2.9,6.6,6.6,6.6h11.1v11.1c0,3.6,3,6.6,6.6,6.6c3.7,0,6.6-2.9,6.6-6.6V36.7h11.1c3.6,0,6.6-3,6.6-6.6
	C54.4,26.4,51.4,23.4,47.8,23.4z"/>
</svg>
