<?xml version="1.0" encoding="utf-8"?>
<!-- Generator: Adobe Illustrator 15.0.0, SVG Export Plug-In . SVG Version: 6.00 Build 0)  -->
<!DOCTYPE svg PUBLIC "-//W3C//DTD SVG 1.1//EN" "http://www.w3.org/Graphics/SVG/1.1/DTD/svg11.dtd" [
	<!ENTITY ns_flows "http://ns.adobe.com/Flows/1.0/">
	<!ENTITY ns_extend "http://ns.adobe.com/Extensibility/1.0/">
	<!ENTITY ns_ai "http://ns.adobe.com/AdobeIllustrator/10.0/">
	<!ENTITY ns_graphs "http://ns.adobe.com/Graphs/1.0/">
]>
<svg version="1.1" id="Layer_1" xmlns:x="&ns_extend;" xmlns:i="&ns_ai;" xmlns:graph="&ns_graphs;"
	 xmlns="http://www.w3.org/2000/svg" xmlns:xlink="http://www.w3.org/1999/xlink" xmlns:a="http://ns.adobe.com/AdobeSVGViewerExtensions/3.0/"
	 x="0px" y="0px" width="60.3px" height="60.3px" viewBox="0 0 60.3 60.3" enable-background="new 0 0 60.3 60.3"
	 xml:space="preserve">
<g>
	<circle fill="#82564C" stroke="#EEE7D3" stroke-width="0.6115" cx="30.1" cy="30.1" r="29.8"/>
	<g>
		<g>
			<defs>
				<rect id="SVGID_1_" x="8" y="19.2" width="42.3" height="21"/>
			</defs>
			<clipPath id="SVGID_2_">
				<use xlink:href="#SVGID_1_"  overflow="visible"/>
			</clipPath>
			<path clip-path="url(#SVGID_2_)" fill="#EAB766" d="M46.8,33.3c-0.5,0.1-1,0.1-1.5,0.1c-1.4,0-2.6-0.3-3.5-0.7
				c-0.9,0.4-2.2,0.7-3.5,0.7c-1.7,0-3.1-0.4-4.1-1c-0.9,0.6-2.4,1-4.1,1c-1.9,0-3.5-0.5-4.4-1.3c-0.9,0.8-2.5,1.3-4.4,1.3
				c-1.6,0-3.1-0.4-4.1-1c-0.9,0.6-2.4,1-4.1,1c-0.7,0-1.3-0.1-1.8-0.2v0.5c0,3.1,2.5,5.5,5.5,5.5h24.4c3.1,0,5.5-2.5,5.5-5.5
				c0-0.1,0-0.2,0-0.2C46.8,33.5,46.8,33.4,46.8,33.3L46.8,33.3z M46.8,33.3"/>
			<path clip-path="url(#SVGID_2_)" fill="#C66559" d="M46.8,28.4c-0.1,0.8-0.7,1.4-1.5,1.4H43c0.3,0.3,0.5,0.7,0.5,1.1
				c0,0.8-0.6,1.4-1.7,1.9c0.9,0.4,2.1,0.7,3.5,0.7c2.9,0,5.2-1.2,5.2-2.6C50.5,29.7,48.9,28.7,46.8,28.4L46.8,28.4z M46.8,28.4"/>
		</g>
		<path fill="#C66559" d="M34.8,29.7c0.3,0.3,0.5,0.7,0.5,1.1c0,0.6-0.4,1.2-1.1,1.6c0.9,0.6,2.4,1,4.1,1c2.9,0,5.2-1.2,5.2-2.6
			c0-0.4-0.2-0.8-0.5-1.1H34.8z M34.8,29.7"/>
		<path fill="#EAB766" d="M46.8,24.9c0-3.1-2.5-5.5-5.5-5.5c-1.6,0-3.1,0.7-4.1,1.8c-1-1.1-2.5-1.8-4.1-1.8c-1.6,0-3.1,0.7-4.1,1.8
			c-1-1.1-2.5-1.8-4.1-1.8c-1.6,0-3,0.7-4.1,1.8c-1-1.1-2.5-1.8-4.1-1.8c-3.1,0-5.5,2.5-5.5,5.5c0,0.1,0,0.2,0,0.2c0,0,0,0.1,0,0.1
			v3c0,0.8,0.7,1.5,1.5,1.5h32.5c0.8,0,1.5-0.7,1.5-1.5v-3c0,0,0-0.1,0-0.1C46.8,25.1,46.8,25,46.8,24.9L46.8,24.9z M46.8,24.9"/>
		<path fill="#C66559" d="M12.8,29.7c-0.8,0-1.4-0.6-1.5-1.3C9.4,28.8,8,29.7,8,30.8c0,1.4,2.3,2.6,5.2,2.6c2.9,0,5.2-1.2,5.2-2.6
			c0-0.4-0.2-0.8-0.5-1.1H12.8z M12.8,29.7"/>
		<path fill="#C66559" d="M17.8,29.7c0.3,0.3,0.5,0.7,0.5,1.1c0,0.6-0.4,1.2-1.1,1.6c0.9,0.6,2.4,1,4.1,1c2.9,0,5.2-1.2,5.2-2.6
			c0-0.4-0.2-0.8-0.5-1.1H17.8z M17.8,29.7"/>
		<path fill="#C66559" d="M26,29.7c0.3,0.3,0.5,0.7,0.5,1.1c0,0.5-0.3,0.9-0.7,1.3c0.9,0.8,2.5,1.3,4.4,1.3c2.9,0,5.2-1.2,5.2-2.6
			c0-0.4-0.2-0.8-0.5-1.1H26z M26,29.7"/>
		<path fill="#EEE7D3" d="M16.9,35.6c0,0.4-0.3,0.7-0.7,0.7c-0.4,0-0.7-0.3-0.7-0.7c0-0.4,0.3-0.7,0.7-0.7
			C16.5,34.9,16.9,35.2,16.9,35.6L16.9,35.6z M16.9,35.6"/>
		<path fill="#EEE7D3" d="M20.6,37.1c0,0.4-0.3,0.7-0.7,0.7c-0.4,0-0.7-0.3-0.7-0.7c0-0.4,0.3-0.7,0.7-0.7
			C20.2,36.4,20.6,36.7,20.6,37.1L20.6,37.1z M20.6,37.1"/>
		<path fill="#EEE7D3" d="M23.5,35.6c0,0.4-0.3,0.7-0.7,0.7c-0.4,0-0.7-0.3-0.7-0.7c0-0.4,0.3-0.7,0.7-0.7
			C23.2,34.9,23.5,35.2,23.5,35.6L23.5,35.6z M23.5,35.6"/>
		<path fill="#EEE7D3" d="M25.7,37.1c0,0.4-0.3,0.7-0.7,0.7c-0.4,0-0.7-0.3-0.7-0.7c0-0.4,0.3-0.7,0.7-0.7
			C25.4,36.4,25.7,36.7,25.7,37.1L25.7,37.1z M25.7,37.1"/>
		<path fill="#EEE7D3" d="M28.7,35.6c0,0.4-0.3,0.7-0.7,0.7s-0.7-0.3-0.7-0.7c0-0.4,0.3-0.7,0.7-0.7S28.7,35.2,28.7,35.6L28.7,35.6z
			 M28.7,35.6"/>
		<path fill="#EEE7D3" d="M31.6,37.1c0,0.4-0.3,0.7-0.7,0.7c-0.4,0-0.7-0.3-0.7-0.7c0-0.4,0.3-0.7,0.7-0.7
			C31.3,36.4,31.6,36.7,31.6,37.1L31.6,37.1z M31.6,37.1"/>
		<path fill="#EEE7D3" d="M34.6,34.9c0,0.4-0.3,0.7-0.7,0.7c-0.4,0-0.7-0.3-0.7-0.7c0-0.4,0.3-0.7,0.7-0.7
			C34.3,34.2,34.6,34.5,34.6,34.9L34.6,34.9z M34.6,34.9"/>
		<path fill="#EEE7D3" d="M36.8,37.1c0,0.4-0.3,0.7-0.7,0.7c-0.4,0-0.7-0.3-0.7-0.7c0-0.4,0.3-0.7,0.7-0.7
			C36.5,36.4,36.8,36.7,36.8,37.1L36.8,37.1z M36.8,37.1"/>
		<path fill="#EEE7D3" d="M40.5,35.6c0,0.4-0.3,0.7-0.7,0.7c-0.4,0-0.7-0.3-0.7-0.7c0-0.4,0.3-0.7,0.7-0.7
			C40.2,34.9,40.5,35.2,40.5,35.6L40.5,35.6z M40.5,35.6"/>
		<path fill="#EEE7D3" d="M43.5,36.4c0,0.4-0.3,0.7-0.7,0.7c-0.4,0-0.7-0.3-0.7-0.7c0-0.4,0.3-0.7,0.7-0.7
			C43.1,35.6,43.5,36,43.5,36.4L43.5,36.4z M43.5,36.4"/>
		<path fill="#EEE7D3" d="M19.8,26.3c-0.4,0-0.7-0.3-0.7-0.7c0-3.5,2.8-6.3,6.3-6.3c0.4,0,0.7,0.3,0.7,0.7s-0.3,0.7-0.7,0.7
			c-2.6,0-4.8,2.2-4.8,4.8C20.5,26,20.2,26.3,19.8,26.3L19.8,26.3z M19.8,26.3"/>
		<path fill="#EEE7D3" d="M27.6,26.4c-0.4,0-0.7-0.3-0.7-0.7c0-3.5,2.8-6.3,6.3-6.3c0.4,0,0.7,0.3,0.7,0.7c0,0.4-0.3,0.7-0.7,0.7
			c-2.6,0-4.8,2.2-4.8,4.8C28.3,26.1,28,26.4,27.6,26.4L27.6,26.4z M27.6,26.4"/>
		<path fill="#EEB04B" d="M35.7,25.7c0-3.1,2.5-5.5,5.5-5.5"/>
		<path fill="#EEE7D3" d="M35.7,26.4c-0.4,0-0.7-0.3-0.7-0.7c0-3.5,2.8-6.3,6.3-6.3c0.4,0,0.7,0.3,0.7,0.7c0,0.4-0.3,0.7-0.7,0.7
			c-2.6,0-4.8,2.2-4.8,4.8C36.4,26.1,36.1,26.4,35.7,26.4L35.7,26.4z M35.7,26.4"/>
		<path fill="#88C057" d="M18.7,28.2c-0.1,0-0.3,0-0.4,0c-0.1-0.4-0.6-0.8-1.1-0.8c-0.1,0-0.3,0-0.4,0.1c-0.1-0.5-0.6-0.8-1.1-0.8
			c-0.5,0-0.9,0.3-1.1,0.8c-0.1,0-0.3-0.1-0.4-0.1c-0.4,0-0.8,0.1-1.1,0.3c-0.3-0.2-0.7-0.3-1.2-0.3c-1,0-1.8,0.7-1.8,1.5
			c0,0.8,0.8,1.5,1.8,1.5c0.2,0,0.5,0,0.7-0.1c0.3,0.5,0.9,0.8,1.5,0.8c0.4,0,0.7-0.1,1-0.3c0.2,0.2,0.5,0.3,0.9,0.3
			c0.6,0,1.2-0.4,1.4-1c0.3,0.2,0.7,0.3,1.2,0.3c1,0,1.8-0.5,1.8-1.1C20.6,28.7,19.7,28.2,18.7,28.2L18.7,28.2z M18.7,28.2"/>
		<path fill="#88C057" d="M27.6,28.2c-0.1,0-0.3,0-0.4,0c-0.1-0.4-0.6-0.8-1-0.8c-0.2,0-0.3,0-0.4,0.1c-0.1-0.5-0.6-0.8-1.1-0.8
			c-0.5,0-0.9,0.3-1.1,0.8c-0.1,0-0.3-0.1-0.4-0.1c-0.4,0-0.8,0.1-1.1,0.3c-0.3-0.2-0.7-0.3-1.2-0.3c-1,0-1.8,0.7-1.8,1.5
			c0,0.8,0.8,1.5,1.8,1.5c0.2,0,0.5,0,0.7-0.1c0.3,0.5,0.9,0.8,1.5,0.8c0.4,0,0.7-0.1,1-0.3c0.2,0.2,0.5,0.3,0.9,0.3
			c0.7,0,1.2-0.4,1.4-1c0.3,0.2,0.7,0.3,1.2,0.3c1,0,1.8-0.5,1.8-1.1C29.4,28.7,28.6,28.2,27.6,28.2L27.6,28.2z M27.6,28.2"/>
		<path fill="#88C057" d="M37.2,28.2c-0.1,0-0.3,0-0.4,0c-0.1-0.4-0.6-0.8-1-0.8c-0.2,0-0.3,0-0.4,0.1c-0.1-0.5-0.6-0.8-1.1-0.8
			c-0.5,0-0.9,0.3-1.1,0.8c-0.1,0-0.3-0.1-0.4-0.1c-0.4,0-0.8,0.1-1.1,0.3c-0.3-0.2-0.7-0.3-1.2-0.3c-1,0-1.8,0.7-1.8,1.5
			c0,0.8,0.8,1.5,1.8,1.5c0.2,0,0.5,0,0.7-0.1c0.3,0.5,0.9,0.8,1.5,0.8c0.4,0,0.7-0.1,1-0.3c0.2,0.2,0.5,0.3,0.9,0.3
			c0.6,0,1.2-0.4,1.4-1c0.3,0.2,0.7,0.3,1.2,0.3c1,0,1.8-0.5,1.8-1.1C39,28.7,38.2,28.2,37.2,28.2L37.2,28.2z M37.2,28.2"/>
		<path fill="#88C057" d="M46.8,28.2c-0.2,0-0.3,0-0.4,0c-0.1-0.4-0.6-0.8-1.1-0.8c-0.1,0-0.3,0-0.4,0.1c-0.1-0.5-0.6-0.8-1.1-0.8
			c-0.5,0-0.9,0.3-1.1,0.8c-0.1,0-0.3-0.1-0.4-0.1c-0.4,0-0.8,0.1-1.1,0.3c-0.3-0.2-0.7-0.3-1.2-0.3c-1,0-1.8,0.7-1.8,1.5
			c0,0.8,0.8,1.5,1.8,1.5c0.2,0,0.5,0,0.7-0.1c0.3,0.5,0.9,0.8,1.5,0.8c0.4,0,0.7-0.1,1-0.3c0.2,0.2,0.5,0.3,0.9,0.3
			c0.6,0,1.2-0.4,1.4-1c0.3,0.2,0.7,0.3,1.2,0.3c1,0,1.8-0.5,1.8-1.1C48.6,28.7,47.8,28.2,46.8,28.2L46.8,28.2z M46.8,28.2"/>
	</g>
</g>
</svg>
