<?xml version="1.0" encoding="utf-8"?>
<!-- Generator: Adobe Illustrator 15.0.0, SVG Export Plug-In . SVG Version: 6.00 Build 0)  -->
<!DOCTYPE svg PUBLIC "-//W3C//DTD SVG 1.1//EN" "http://www.w3.org/Graphics/SVG/1.1/DTD/svg11.dtd" [
	<!ENTITY ns_flows "http://ns.adobe.com/Flows/1.0/">
	<!ENTITY ns_extend "http://ns.adobe.com/Extensibility/1.0/">
	<!ENTITY ns_ai "http://ns.adobe.com/AdobeIllustrator/10.0/">
	<!ENTITY ns_graphs "http://ns.adobe.com/Graphs/1.0/">
]>
<svg version="1.1" id="Layer_1" xmlns:x="&ns_extend;" xmlns:i="&ns_ai;" xmlns:graph="&ns_graphs;"
	 xmlns="http://www.w3.org/2000/svg" xmlns:xlink="http://www.w3.org/1999/xlink" xmlns:a="http://ns.adobe.com/AdobeSVGViewerExtensions/3.0/"
	 x="0px" y="0px" width="96.1px" height="51.1px" viewBox="0 0 96.1 51.1" enable-background="new 0 0 96.1 51.1"
	 xml:space="preserve">
<g>
	<polygon fill="#EEE7D3" points="67.9,0 0,0 0,51.1 96.1,51.1 	"/>
	<g>
		<defs>
			<polygon id="SVGID_1_" points="67.9,0 0,0 0,51.1 96.1,51.1 			"/>
		</defs>
		<clipPath id="SVGID_2_">
			<use xlink:href="#SVGID_1_"  overflow="visible"/>
		</clipPath>
		<g clip-path="url(#SVGID_2_)">
			<path fill="#EAB766" d="M-8.4,57.3c-3.8-6.6-0.6-16.7,7.5-22.1C12,27.1,24.5,20,38,13.1C46.7,8.9,57,11.3,60.8,18
				c3.8,6.6,0.6,16.7-7.5,22.1C40.5,48.1,28,55.3,14.5,62.1C5.7,66.3-4.6,63.9-8.4,57.3L-8.4,57.3z M-8.4,57.3"/>
			<path fill="#DB9C5D" d="M53.3,40.1c8.1-5.4,11.3-15.5,7.5-22.1c-0.4-0.7-0.9-1.4-1.4-2c2.1,6.5-1.3,15.1-8.5,19.9
				C38.1,43.9,25.6,51.1,12.1,58c-7.8,3.8-16.9,2.2-21.4-2.9c0.2,0.8,0.6,1.5,1,2.2c3.8,6.6,14.1,9,22.8,4.8
				C28,55.3,40.5,48.1,53.3,40.1L53.3,40.1z M53.3,40.1"/>
			<path fill="#EFE8DC" d="M33.4,20.2c0.9-1,3.5-0.4,5.7,1.5c3.4,3,6.5,5.9,9.7,9c2,2,2.8,4.6,1.9,5.6c-0.9,1-3.5,0.4-5.7-1.5
				c-3.4-3-6.5-5.9-9.7-9C33.3,23.7,32.5,21.2,33.4,20.2L33.4,20.2z M33.4,20.2"/>
			<path fill="#DED7CB" d="M50.7,36.3c0.9-1,0.1-3.5-1.9-5.6c-0.7-0.6-1.3-1.3-2-1.9c1,1.6,1.1,3.3,0.3,4.2c-0.8,0.8-2.5,0.8-4.2,0
				c0.7,0.6,1.4,1.2,2.1,1.8C47.2,36.7,49.8,37.3,50.7,36.3L50.7,36.3z M50.7,36.3"/>
			<path fill="#EFE8DC" d="M18,29c0.9-1,3.5-0.4,5.7,1.5c3.4,3,6.5,5.9,9.7,9c2,2,2.8,4.6,1.9,5.6c-0.9,1-3.5,0.4-5.7-1.5
				c-3.4-3-6.5-5.9-9.7-9C17.9,32.5,17.1,30,18,29L18,29z M18,29"/>
			<path fill="#DED7CB" d="M35.4,45.1c0.9-1,0.1-3.5-1.9-5.6c-0.7-0.6-1.3-1.3-2-1.9c1,1.6,1.1,3.3,0.3,4.2c-0.8,0.8-2.5,0.8-4.2,0
				c0.7,0.6,1.4,1.2,2.1,1.8C31.9,45.4,34.4,46.1,35.4,45.1L35.4,45.1z M35.4,45.1"/>
			<path fill="#EFE8DC" d="M2.7,37.7c0.9-1,3.5-0.4,5.7,1.5c3.4,3,6.5,5.9,9.7,9c2,2,2.8,4.6,1.9,5.6s-3.5,0.4-5.7-1.5
				c-3.4-3-6.5-5.9-9.7-9C2.6,41.2,1.8,38.7,2.7,37.7L2.7,37.7z M2.7,37.7"/>
			<path fill="#DED7CB" d="M20,53.8c0.9-1,0.1-3.5-1.9-5.6c-0.7-0.6-1.3-1.3-2-1.9c1,1.6,1.1,3.3,0.3,4.2c-0.8,0.8-2.5,0.8-4.2,0
				c0.7,0.6,1.4,1.2,2.1,1.8C16.5,54.2,19.1,54.8,20,53.8L20,53.8z M20,53.8"/>
		</g>
	</g>
</g>
</svg>
