<?xml version="1.0" encoding="utf-8"?>
<!-- Generator: Adobe Illustrator 15.0.0, SVG Export Plug-In . SVG Version: 6.00 Build 0)  -->
<!DOCTYPE svg PUBLIC "-//W3C//DTD SVG 1.1//EN" "http://www.w3.org/Graphics/SVG/1.1/DTD/svg11.dtd" [
	<!ENTITY ns_flows "http://ns.adobe.com/Flows/1.0/">
	<!ENTITY ns_extend "http://ns.adobe.com/Extensibility/1.0/">
	<!ENTITY ns_ai "http://ns.adobe.com/AdobeIllustrator/10.0/">
	<!ENTITY ns_graphs "http://ns.adobe.com/Graphs/1.0/">
]>
<svg version="1.1" id="Layer_1" xmlns:x="&ns_extend;" xmlns:i="&ns_ai;" xmlns:graph="&ns_graphs;"
	 xmlns="http://www.w3.org/2000/svg" xmlns:xlink="http://www.w3.org/1999/xlink" xmlns:a="http://ns.adobe.com/AdobeSVGViewerExtensions/3.0/"
	 x="0px" y="0px" width="52.7px" height="37.6px" viewBox="0 0 52.7 37.6" enable-background="new 0 0 52.7 37.6"
	 xml:space="preserve">
<g>
	<g>
		<path fill="#FFF" d="M51.1,4c0,0.5-0.6,1-1.4,1H3C2.2,5,1.6,4.6,1.6,4S2.2,3,3,3h46.7C50.4,3,51.1,3.5,51.1,4z"/>
	</g>
	<g>
		<path fill="#FFF" d="M51.1,18.8c0,0.5-0.6,1-1.4,1H3c-0.8,0-1.4-0.5-1.4-1s0.6-1,1.4-1h46.7C50.4,17.8,51.1,18.3,51.1,18.8z"/>
	</g>
	<g>
		<path fill="#FFF" d="M51.1,33.6c0,0.5-0.6,1-1.4,1H3c-0.8,0-1.4-0.5-1.4-1s0.6-1,1.4-1h46.7C50.4,32.6,51.1,33.1,51.1,33.6z"/>
	</g>
</g>
</svg>
