<?xml version="1.0" encoding="utf-8"?>
<!-- Generator: Adobe Illustrator 15.0.0, SVG Export Plug-In . SVG Version: 6.00 Build 0)  -->
<!DOCTYPE svg PUBLIC "-//W3C//DTD SVG 1.1//EN" "http://www.w3.org/Graphics/SVG/1.1/DTD/svg11.dtd" [
	<!ENTITY ns_flows "http://ns.adobe.com/Flows/1.0/">
	<!ENTITY ns_extend "http://ns.adobe.com/Extensibility/1.0/">
	<!ENTITY ns_ai "http://ns.adobe.com/AdobeIllustrator/10.0/">
	<!ENTITY ns_graphs "http://ns.adobe.com/Graphs/1.0/">
]>
<svg version="1.1" id="Layer_1" xmlns:x="&ns_extend;" xmlns:i="&ns_ai;" xmlns:graph="&ns_graphs;"
	 xmlns="http://www.w3.org/2000/svg" xmlns:xlink="http://www.w3.org/1999/xlink" xmlns:a="http://ns.adobe.com/AdobeSVGViewerExtensions/3.0/"
	 x="0px" y="0px" width="60px" height="60px" viewBox="0 0 60 60" enable-background="new 0 0 60 60" xml:space="preserve">
<path fill="#EEE7D3" d="M55.1,13.3c-1.1-1.3-2.8-2.1-4.6-2.1c-1.6,0-3.2,0.6-4.5,1.7L23.8,31.9c-1,0.9-2.7,0.7-3.6-0.3l-5.1-6
	c-1.3-1.5-3.2-2.4-5.2-2.4c-1.5,0-3,0.5-4.1,1.5c-1.3,1.1-2.1,2.7-2.2,4.5C3.4,30.9,4,32.6,5.2,34l10.6,12.4
	c1.3,1.5,3.2,2.4,5.2,2.4c1.5,0,3-0.5,4.1-1.5l2.4-2c0.3-0.3,0.7-0.6,1-0.9l0,0c0.2-0.2,1.7-1.4,3.4-3L54,22.4
	C56.9,20,57.3,15.9,55.1,13.3z"/>
</svg>
