<?xml version="1.0" encoding="utf-8"?>
<!-- Generator: Adobe Illustrator 15.0.0, SVG Export Plug-In . SVG Version: 6.00 Build 0)  -->
<!DOCTYPE svg PUBLIC "-//W3C//DTD SVG 1.1//EN" "http://www.w3.org/Graphics/SVG/1.1/DTD/svg11.dtd" [
	<!ENTITY ns_flows "http://ns.adobe.com/Flows/1.0/">
	<!ENTITY ns_extend "http://ns.adobe.com/Extensibility/1.0/">
	<!ENTITY ns_ai "http://ns.adobe.com/AdobeIllustrator/10.0/">
	<!ENTITY ns_graphs "http://ns.adobe.com/Graphs/1.0/">
]>
<svg version="1.1" id="Layer_1" xmlns:x="&ns_extend;" xmlns:i="&ns_ai;" xmlns:graph="&ns_graphs;"
	 xmlns="http://www.w3.org/2000/svg" xmlns:xlink="http://www.w3.org/1999/xlink" xmlns:a="http://ns.adobe.com/AdobeSVGViewerExtensions/3.0/"
	 x="0px" y="0px" width="96.1px" height="51.1px" viewBox="0 0 96.1 51.1" enable-background="new 0 0 96.1 51.1"
	 xml:space="preserve">
<g>
	<polygon fill="#EEE7D3" points="67.9,0 0,0 0,51.1 96.1,51.1 	"/>
	<g>
		<defs>
			<polygon id="SVGID_1_" points="67.9,0 0,0 0,51.1 96.1,51.1 			"/>
		</defs>
		<clipPath id="SVGID_2_">
			<use xlink:href="#SVGID_1_"  overflow="visible"/>
		</clipPath>
		<g clip-path="url(#SVGID_2_)">
			<path fill="#EAB766" d="M50,19.9l-6.5-8.3L25,12.4l-38.6,30.3c-3.6,3.2-1.1,7-1.1,7l13.9,17.6c0,0,3.1,3.4,7.1,0.6l38.6-30.3
				L50,19.9z"/>
			<path fill="#EEE7D3" d="M42.6,35.3L5,32.6l-15.3,12c-2.8,2.2-0.8,5.1-0.8,5.1l3.8,4.8l0.6,0.7L0.2,64c0,0,2.4,2.7,5.2,0.5
				L42.6,35.3L42.6,35.3z"/>
			<path fill="#DDC397" d="M55.5,13.5L51,7.8c-0.6-0.7-1.7-0.7-2.2-0.3c-0.5,0.4-1,0.7-1,0.7l-2.5,1.9l6.5,8.3c0,0,2.9-2.3,3.5-2.7
				C55.8,15.4,56,14.2,55.5,13.5z"/>
		</g>
	</g>
</g>
</svg>
