<?xml version="1.0" encoding="utf-8"?>
<!-- Generator: Adobe Illustrator 15.0.0, SVG Export Plug-In . SVG Version: 6.00 Build 0)  -->
<!DOCTYPE svg PUBLIC "-//W3C//DTD SVG 1.1//EN" "http://www.w3.org/Graphics/SVG/1.1/DTD/svg11.dtd" [
	<!ENTITY ns_flows "http://ns.adobe.com/Flows/1.0/">
	<!ENTITY ns_extend "http://ns.adobe.com/Extensibility/1.0/">
	<!ENTITY ns_ai "http://ns.adobe.com/AdobeIllustrator/10.0/">
	<!ENTITY ns_graphs "http://ns.adobe.com/Graphs/1.0/">
	<!ENTITY ns_vars "http://ns.adobe.com/Variables/1.0/">
	<!ENTITY ns_imrep "http://ns.adobe.com/ImageReplacement/1.0/">
	<!ENTITY ns_sfw "http://ns.adobe.com/SaveForWeb/1.0/">
	<!ENTITY ns_custom "http://ns.adobe.com/GenericCustomNamespace/1.0/">
	<!ENTITY ns_adobe_xpath "http://ns.adobe.com/XPath/1.0/">
]>
<svg version="1.1"
	 xmlns:x="&ns_extend;" xmlns:i="&ns_ai;" xmlns:graph="&ns_graphs;" i:viewOrigin="263.6001 454.4004" i:rulerOrigin="-263.6001 -140.5996" i:pageBounds="263.6001 454.4004 577.4004 140.5996"
	 xmlns="http://www.w3.org/2000/svg" xmlns:xlink="http://www.w3.org/1999/xlink" xmlns:a="http://ns.adobe.com/AdobeSVGViewerExtensions/3.0/"
	 x="0px" y="0px" width="313.8px" height="313.8px" viewBox="0 0 313.8 313.8" enable-background="new 0 0 313.8 313.8"
	 xml:space="preserve">
<metadata>
	<variableSets  xmlns="&ns_vars;">
		<variableSet  locked="none" varSetName="binding1">
			<variables></variables>
			<v:sampleDataSets  xmlns:v="&ns_vars;" xmlns="&ns_custom;"></v:sampleDataSets>
		</variableSet>
	</variableSets>
	<sfw  xmlns="&ns_sfw;">
		<slices></slices>
		<sliceSourceBounds  x="259" y="105.4" width="310" height="340.6" bottomLeftOrigin="true"></sliceSourceBounds>
	</sfw>
</metadata>
<g id="Layer_1" i:layer="yes" i:dimmedPercent="50" i:rgbTrio="#4F008000FFFF">
	<g i:knockout="Off">
		<circle fill="#EAB766" cx="156.9" cy="156.9" r="148.5"/>
		<g i:knockout="Off">
			<g i:knockout="Off">
				<g>
					<defs>
						<circle id="SVGID_1_" cx="156.9" cy="156.9" r="148.5"/>
					</defs>
					<clipPath id="SVGID_2_">
						<use xlink:href="#SVGID_1_"  overflow="visible"/>
					</clipPath>
					<g i:knockout="Off" clip-path="url(#SVGID_2_)">
						<path fill="#EEE6D2" d="M25.8,264.8c-0.5,1.7-1.2,3.2-2.3,4.6C2.4,295.6-13.4,331.1,0.9,343c14.7,12.2,54.2,5.8,76.1-20.5
							l156.3-188.4c21.9-26.4,23.5-69.6,8.8-81.8c-14.6-12.1-48.4,9.1-71.4,39.5c-0.2,0.3-0.5,0.5-0.8,0.7
							c-2.3,1.4-13.1,8.3-17.5,13.6c-7.8,9.4-11.3,20.8-10.6,31.5c-10.6,1.3-21.1,6.8-29,16.2c-7.8,9.5-11.3,20.9-10.6,31.5
							c-10.6,1.3-21.1,6.8-29,16.2c-7.8,9.5-11.3,20.9-10.6,31.5c-10.6,1.3-21.2,6.8-29,16.2C29.5,254.4,27.3,259.2,25.8,264.8
							L25.8,264.8z"/>
						<path fill="#EAB766" d="M170.8,91.8c-0.2,0.3-0.5,0.5-0.8,0.7c-0.8,0.5-2.5,1.5-4.5,2.9c0.1,1.5,0.2,2.8,0.5,4
							c1.8,8.2,7.7,14.9,17.2,19.6c0.9,0.4,1.7,0.5,2.6,0.5c1.7-0.2,3.2-1.1,4-2.8c1.2-2.5,0.2-5.4-2.3-6.6
							c-4.6-2.2-10.5-6.3-11.9-12.8c-1.1-5.1,0.7-11.1,5.2-17.5C177.4,83.7,174,87.6,170.8,91.8L170.8,91.8z"/>
						<path fill="#EAB766" d="M152.3,161.6c0.9,0.4,1.8,0.6,2.7,0.5c1.6-0.2,3.1-1.1,4-2.7c1.2-2.4,0.3-5.4-2.1-6.6
							c-6.5-3.4-11-9.5-12.6-17.1c-1.3-6.2-0.6-12.8,1.7-19c-3.1,6.8-4.5,14.1-4,21c-2.4,0.3-4.7,0.8-7,1.5
							C137.4,149.1,143.5,157,152.3,161.6L152.3,161.6z"/>
						<path fill="#EAB766" d="M112.1,210c0.9,0.5,1.8,0.6,2.7,0.5c1.6-0.2,3.1-1.1,3.9-2.6c1.3-2.4,0.3-5.4-2.1-6.7
							c-8.3-4.3-11.3-11.6-12.4-17c-1.2-6.2-0.5-13,1.9-19.4c-3,6.7-4.2,13.7-3.8,20.5c-2.5,0.3-5.1,0.9-7.6,1.6
							C97,197.2,103.1,205.3,112.1,210L112.1,210z"/>
						<path fill="#EAB766" d="M76.7,253.2c0.8,0.3,1.6,0.5,2.4,0.4c1.7-0.2,3.3-1.2,4.1-3c1.1-2.5-0.1-5.4-2.6-6.5
							c-9-3.9-14.4-9.3-16-16c-1.1-4.7-0.3-10.2,2.1-15.9c-3.1,6.8-4.4,14-3.9,20.8c-2.2,0.2-4.3,0.7-6.5,1.4
							C58.8,240.6,64.4,247.9,76.7,253.2L76.7,253.2z"/>
						<path fill="#E9C392" d="M35.5,296.5"/>
					</g>
				</g>
			</g>
		</g>
	</g>
</g>
</svg>
