<?xml version="1.0" encoding="utf-8"?>
<!-- Generator: Adobe Illustrator 15.0.0, SVG Export Plug-In . SVG Version: 6.00 Build 0)  -->
<!DOCTYPE svg PUBLIC "-//W3C//DTD SVG 1.1//EN" "http://www.w3.org/Graphics/SVG/1.1/DTD/svg11.dtd">
<svg version="1.1" id="Layer_1" xmlns="http://www.w3.org/2000/svg" xmlns:xlink="http://www.w3.org/1999/xlink" x="0px" y="0px"
	 width="313.8px" height="313.8px" viewBox="0 0 313.8 313.8" enable-background="new 0 0 313.8 313.8" xml:space="preserve">
<g>
	<circle fill="#EAB766" cx="156.9" cy="156.9" r="148.5"/>
	<g>
		<g>
			<path fill="#EEE6D2" d="M203.1,159c6.2,1.5,12.9,1.4,20.1-1.6c12.4-5.2,21.2-17.1,21.4-30.5c0.3-15-9.2-27.9-22.6-32.5
				C221.1,80.7,209.7,70,195.8,70c-0.1,0-0.1,0-0.1,0c0.3-2.1,0.1-4.3-0.5-6.5c-1.9-6.4-7.5-11.3-14.1-12.1
				c-5.4-0.6-10.4,1.3-13.9,4.8c-3.3-3-7.7-4.9-12.5-4.9c-10.4,0-18.7,8.4-18.7,18.8v0.1c-12.6,1-22.5,11.4-22.5,24.3
				c0,2,0.2,3.9,0.7,5.7c-15,0.6-26.9,12.9-26.9,28.1c0,5.1,1.4,9.9,3.8,14c-4.6,3.8-7.5,9.5-7.5,16c0,9,5.8,16.6,13.8,19.4
				c-1,36.7,12,58.3,37.4,87.5c0.4,0.5,0.9,1,1.4,1.6l0.3,0.3c10.5,11.8,34.3,2.8,29.2-12.2c-27.3-80,56.8-68.4,56.8-68.4
				s2.4-24.2-19.3-25.3c0-0.6,0.1-1.2,0.1-1.8C203,159.1,203,159,203.1,159L203.1,159z"/>
		</g>
		<g>
			<path fill="#EAB766" d="M145.7,148.3c0.2-0.5,0.3-1,0.3-1.6c2.9-7.2,6.3-13.2,9.8-18.2c17.9-3.7,31.3,1.9,31.6,2
				c0.5,0.2,1.1,0.3,1.6,0.3c1.5,0,3-0.9,3.6-2.4c0.9-2,0-4.4-2-5.2c-0.5-0.2-11.5-4.9-27.3-3.8c7.7-8,14.5-11.7,15.5-12.2
				c5.8-2.8,14.2,0.8,17,2.4c0.6,0.4,1.3,0.5,2,0.5c1.4,0,2.7-0.7,3.4-2c1.1-1.9,0.5-4.3-1.4-5.4c-0.4-0.3-9.4-5.4-18.6-4.4
				c0.8-3.2,2.5-6.2,3.4-7.3c1.3-1.7,1-4.2-0.7-5.6c-1.7-1.3-4.3-1-5.6,0.7c-0.3,0.3-5.5,7.2-5.5,15.2c-5.8,3.6-20.7,14.3-31.2,35.9
				c-0.6,1.2-1.1,2.4-1.6,3.7c-10.8-7.4-9.1-20.6-9-21.3c0.3-2.2-1.1-4.2-3.3-4.5s-4.2,1.1-4.6,3.3c-1.1,7.2,0.5,22.1,13.9,30.1
				c-3,8.7-5.2,19.1-5.9,31.4c-0.1,0.4-0.1,0.8-0.1,1.1c-0.4,8.6,0,18.1,1.4,28.6c-5.1-2.8-7.4-6.8-7.5-7.1c-1-1.9-3.4-2.7-5.4-1.7
				c-1.9,1-2.7,3.4-1.7,5.4c0.2,0.4,5,9.2,16,12.6c2.9,15.7,8,33.4,16.3,53.3c2.7-0.2,5.4-0.9,7.7-2.1v-0.1
				c-8.7-20.7-13.9-38.8-16.7-54.9c0-0.1,0-0.2-0.1-0.3c-2.1-12-2.7-22.9-2.3-32.6c5.6-9.5,21.9-9.9,22.1-9.9c2.2,0,4-1.8,3.9-4
				c0-2.2-1.8-3.9-4-3.9h-0.1c-0.6,0-12,0.3-21,5.9c1.1-7.9,2.9-14.9,5.2-21.1C145.3,149,145.5,148.7,145.7,148.3L145.7,148.3z"/>
		</g>
	</g>
</g>
</svg>
