<?xml version="1.0" encoding="utf-8"?>
<!-- Generator: Adobe Illustrator 15.0.0, SVG Export Plug-In . SVG Version: 6.00 Build 0)  -->
<!DOCTYPE svg PUBLIC "-//W3C//DTD SVG 1.1//EN" "http://www.w3.org/Graphics/SVG/1.1/DTD/svg11.dtd" [
	<!ENTITY ns_flows "http://ns.adobe.com/Flows/1.0/">
	<!ENTITY ns_extend "http://ns.adobe.com/Extensibility/1.0/">
	<!ENTITY ns_ai "http://ns.adobe.com/AdobeIllustrator/10.0/">
	<!ENTITY ns_graphs "http://ns.adobe.com/Graphs/1.0/">
]>
<svg version="1.1" id="Layer_1" xmlns:x="&ns_extend;" xmlns:i="&ns_ai;" xmlns:graph="&ns_graphs;"
	 xmlns="http://www.w3.org/2000/svg" xmlns:xlink="http://www.w3.org/1999/xlink" xmlns:a="http://ns.adobe.com/AdobeSVGViewerExtensions/3.0/"
	 x="0px" y="0px" width="96.1px" height="51.1px" viewBox="0 0 96.1 51.1" enable-background="new 0 0 96.1 51.1"
	 xml:space="preserve">
<g>
	<polygon fill="#EEE7D3" points="67.9,0 0,0 0,51.1 96.1,51.1 	"/>
	<g>
		<defs>
			<polygon id="SVGID_1_" points="67.9,0 0,0 0,51.1 96.1,51.1 			"/>
		</defs>
		<clipPath id="SVGID_2_">
			<use xlink:href="#SVGID_1_"  overflow="visible"/>
		</clipPath>
		<g clip-path="url(#SVGID_2_)">
			<g id="XMLID_1_">
				<g>
					<path fill="#EEE7D3" d="M62.4,22.2c-0.8,8.6-11,14.4-18.7,15.6c-3,0.5-5.9,0.8-8.7,1.8c-1.8,0.6-3.5,1.4-5.4,1.7
						c-2.2,0.4-4-0.3-5.5-1.5c-1.9,1.2-3.9,2.5-5.8,3.8c-1.6,1.2-2.5,2.2-3,4.1c-0.2,0.9-0.3,2-0.6,2.8c-0.8,2.4-2.5,3.7-4.9,4.2
						c-2.6,0.5-4.4-0.2-5.7-2.5c-0.6-1-0.9-2.2-1-3.3c-0.1-0.8,0.2-1.5,0.3-2.2c-2-0.2-3.5-0.7-4.7-2.7c-1.2-2-1.4-4.2,0.2-6.1
						c1.4-1.8,3.5-1.9,5.6-1.7c1.2,0.1,2.2,0.4,3.4,0.3c1.8-0.1,3-0.9,4.5-1.8c1.9-1.2,3.8-2.5,5.7-3.7c-0.5-1.7-0.5-3.4,0.4-5.3
						c1-2.2,2.9-3.8,4.6-5.4c2.2-2.1,4-4.6,5.8-7c2.4-3.3,5-6.3,8.8-7.9c3.7-1.5,9.5-3.1,13.5-2C59.6,5.5,63.2,13.9,62.4,22.2z
						 M59.6,26.2c2.6-4.3,1.7-12.4-1.3-16.2c-7.3-9.2-21-5.4-27.4,2.7c-2.5,3.3-4.8,6.4-7.8,9.3c-2.3,2.2-4.6,4.7-3.9,8.2
						c0.5,2.1,2,4.1,3.3,5.8c2,2.5,4.1,4.1,7.5,3.6c1.5-0.2,3-1,4.5-1.5c4-1.4,8.2-1.4,12.3-2.5C51.4,34.5,57.1,30.4,59.6,26.2z
						 M22.8,38.7c-0.5-0.5-1-1.1-1.5-1.7c0,0,0-0.1,0-0.1c0,0-0.1,0-0.1-0.1c-1.1-1.5-2.2-2.9-2.9-4.5c-3,2-6.5,5.2-10.1,5.7
						c-1.8,0.2-3.6-0.8-5.3-0.5c-5.9,1-4.2,7.3,0.9,7.7c0.4,0,0.7,0.3,0.8,0.7c0.4,2.7-1.5,7.2,3.8,7.4c2.1,0.1,3.9-1.3,4.6-3.2
						c0.4-1.1,0.1-2.5,0.6-3.6C15.1,42.9,19.6,40.8,22.8,38.7z"/>
					<path fill="#EAB766" d="M58.3,10c3,3.8,3.9,11.9,1.3,16.2c-2.5,4.2-8.2,8.3-12.9,9.5c-4.1,1.1-8.3,1.1-12.3,2.5
						c-1.4,0.5-3,1.2-4.5,1.5c-3.4,0.5-5.5-1.1-7.5-3.6c-1.3-1.7-2.8-3.7-3.3-5.8c-0.7-3.4,1.6-6,3.9-8.2c3-2.9,5.3-6,7.8-9.3
						C37.3,4.5,51,0.8,58.3,10z M56,21.8c0.9,0.2,1.3-1.2,0.4-1.5C55.4,20.1,55,21.5,56,21.8z M54.4,27c0.2-1-1.3-1.3-1.5-0.4
						c0,0,0,0.1,0,0.1c-0.2,0.9,1.3,1.3,1.5,0.4C54.4,27.1,54.4,27.1,54.4,27z M55.4,14.1c0.8-0.5,0-1.8-0.8-1.3c0,0-0.1,0-0.1,0.1
						C53.7,13.4,54.5,14.7,55.4,14.1C55.3,14.2,55.3,14.2,55.4,14.1z M50.4,18.4c0.5,0.8,1.8,0,1.3-0.8c0,0,0-0.1,0-0.1
						C51.1,16.7,49.8,17.5,50.4,18.4C50.3,18.3,50.4,18.4,50.4,18.4z M50.2,8.5c0.9,0.2,1.3-1.2,0.4-1.5C49.6,6.8,49.2,8.3,50.2,8.5
						z M46,28.3c0.9,0.2,1.3-1.2,0.4-1.5C45.4,26.6,45.1,28,46,28.3z M47.2,21.3c0,0,0-0.1,0-0.1c0.2-1-1.3-1.3-1.5-0.4
						c0,0,0,0.1,0,0.1C45.5,21.8,46.9,22.2,47.2,21.3z M45.1,12.8c0.9,0.2,1.3-1.2,0.4-1.5C44.5,11.1,44.2,12.6,45.1,12.8z
						 M39.2,18.9c0.9,0.2,1.3-1.2,0.4-1.5C38.6,17.2,38.3,18.6,39.2,18.9z M38.7,11.8c0.9,0.2,1.3-1.2,0.4-1.5
						C38.2,10.1,37.8,11.5,38.7,11.8z M25.1,23.6c0.9,0.2,1.3-1.2,0.4-1.5C24.5,21.9,24.2,23.3,25.1,23.6z M23.8,26.3
						c0.6-0.8-0.5-1.8-1.1-1.1c-1.1,1.4-1.7,3-1.9,4.7c-0.1,1,1.4,0.9,1.5,0C22.4,28.6,22.9,27.3,23.8,26.3z"/>
					<path fill="#EEE7D3" d="M56.4,20.3c0.9,0.2,0.6,1.7-0.4,1.5C55,21.5,55.4,20.1,56.4,20.3z"/>
					<path fill="#EEE7D3" d="M52.9,26.7c0.2-1,1.7-0.6,1.5,0.4c0,0,0,0.1,0,0.1c-0.2,1-1.7,0.6-1.5-0.4
						C52.9,26.8,52.9,26.7,52.9,26.7z"/>
					<path fill="#EEE7D3" d="M54.6,12.8c0.8-0.5,1.6,0.8,0.8,1.3c0,0-0.1,0-0.1,0.1C54.5,14.7,53.7,13.4,54.6,12.8
						C54.5,12.9,54.6,12.9,54.6,12.8z"/>
					<path fill="#EEE7D3" d="M51.7,17.6c0.5,0.8-0.8,1.6-1.3,0.8c0,0,0-0.1,0-0.1C49.8,17.5,51.1,16.7,51.7,17.6
						C51.6,17.6,51.7,17.6,51.7,17.6z"/>
					<path fill="#EEE7D3" d="M50.5,7.1c0.9,0.2,0.6,1.7-0.4,1.5C49.2,8.3,49.6,6.8,50.5,7.1z"/>
					<path fill="#EEE7D3" d="M46.4,26.8c0.9,0.2,0.6,1.7-0.4,1.5C45.1,28,45.4,26.6,46.4,26.8z"/>
					<path fill="#EEE7D3" d="M47.2,21.1c0,0,0,0.1,0,0.1c-0.2,1-1.7,0.6-1.5-0.4c0,0,0-0.1,0-0.1C45.9,19.8,47.4,20.2,47.2,21.1z"/>
					<path fill="#EEE7D3" d="M45.5,11.3c0.9,0.2,0.6,1.7-0.4,1.5C44.2,12.6,44.5,11.1,45.5,11.3z"/>
					<path fill="#EEE7D3" d="M39.6,17.4c0.9,0.2,0.6,1.7-0.4,1.5C38.3,18.6,38.6,17.2,39.6,17.4z"/>
					<path fill="#EEE7D3" d="M39.1,10.3c0.9,0.2,0.6,1.7-0.4,1.5C37.8,11.5,38.2,10.1,39.1,10.3z"/>
					<path fill="#EEE7D3" d="M25.5,22.1c0.9,0.2,0.6,1.7-0.4,1.5C24.2,23.3,24.5,21.9,25.5,22.1z"/>
					<path fill="#DDC397" d="M21.4,37.1c0.5,0.6,1,1.1,1.5,1.7c-3.3,2-7.7,4.1-9.1,7.9c-0.4,1.1-0.2,2.5-0.6,3.6
						c-0.7,1.9-2.6,3.3-4.6,3.2c-5.3-0.2-3.4-4.7-3.8-7.4c-0.1-0.4-0.3-0.7-0.8-0.7c-5.1-0.3-6.9-6.7-0.9-7.7
						c1.7-0.3,3.5,0.8,5.3,0.5c3.5-0.4,7.1-3.7,10.1-5.7c0.7,1.6,1.8,3,2.9,4.5C21.3,37,21.3,37,21.4,37.1
						C21.3,37,21.3,37,21.4,37.1z"/>
					<path fill="#EEE7D3" d="M22.7,25.2c0.6-0.8,1.7,0.3,1.1,1.1c-0.8,1-1.4,2.3-1.5,3.6c-0.1,1-1.6,1-1.5,0
						C21,28.2,21.6,26.6,22.7,25.2z"/>
				</g>
				<g>
				</g>
			</g>
		</g>
	</g>
</g>
</svg>
