<?xml version="1.0" encoding="utf-8"?>
<!-- Generator: Adobe Illustrator 15.0.0, SVG Export Plug-In . SVG Version: 6.00 Build 0)  -->
<!DOCTYPE svg PUBLIC "-//W3C//DTD SVG 1.1//EN" "http://www.w3.org/Graphics/SVG/1.1/DTD/svg11.dtd">
<svg version="1.1" id="Layer_1" xmlns="http://www.w3.org/2000/svg" xmlns:xlink="http://www.w3.org/1999/xlink" x="0px" y="0px"
	 width="558.4px" height="456.9px" viewBox="0 0 558.4 456.9" enable-background="new 0 0 558.4 456.9" xml:space="preserve">
<g>
	<path  fill="#FCB415" d="M247.7,226H242v50.4h5.9c2,0,2.3-0.101,3.399-0.4c3.2-0.899,3.4-3.5,3.4-6.1V233c0-0.1,0.1-2-0.2-3.1
		C253.3,225.7,248.6,226,247.7,226z"/>
	<path fill="#FCB415" d="M247.7,226H242v50.4h5.9c2,0,2.3-0.101,3.399-0.4c3.2-0.899,3.4-3.5,3.4-6.1V233c0-0.1,0.1-2-0.2-3.1
		C253.3,225.7,248.6,226,247.7,226z"/>
	<path fill="#FCB415" d="M247.7,226H242v50.4h5.9c2,0,2.3-0.101,3.399-0.4c3.2-0.899,3.4-3.5,3.4-6.1V233c0-0.1,0.1-2-0.2-3.1
		C253.3,225.7,248.6,226,247.7,226z"/>
	<polygon fill="#FCB415" points="123.7,259.2 134,259.2 128.9,224.9 	"/>
	<polygon fill="#FCB415" points="123.7,259.2 134,259.2 128.9,224.9 	"/>
	<polygon fill="#FCB415" points="123.7,259.2 134,259.2 128.9,224.9 	"/>
	<path fill="#FCB415" d="M246.9,337.9c-0.4-0.2-2-1.1-4.7-1.1c-2,0-3.8,0.5-5.4,1.5c-2.699,1.699-4,4.899-4,9.5V348v42.5
		c0,4.301,0.2,6.601,0.801,8.4c0.199,0.5,2.1,5.3,8.699,5.3c2.101,0,3.9-0.6,5.4-1.7c3.7-2.6,4-6.699,4-11.3v-37.6
		c0-6.101-0.3-9.7-1.7-12.5C249.6,340.301,248.8,338.9,246.9,337.9z"/>
	<path fill="#FCB415" d="M246.9,337.9c-0.4-0.2-2-1.1-4.7-1.1c-2,0-3.8,0.5-5.4,1.5c-2.699,1.699-4,4.899-4,9.5V348v42.5
		c0,4.301,0.2,6.601,0.801,8.4c0.199,0.5,2.1,5.3,8.699,5.3c2.101,0,3.9-0.6,5.4-1.7c3.7-2.6,4-6.699,4-11.3v-37.6
		c0-6.101-0.3-9.7-1.7-12.5C249.6,340.301,248.8,338.9,246.9,337.9z"/>
	<path fill="#FCB415" d="M246.9,337.9c-0.4-0.2-2-1.1-4.7-1.1c-2,0-3.8,0.5-5.4,1.5c-2.699,1.699-4,4.899-4,9.5V348v42.5
		c0,4.301,0.2,6.601,0.801,8.4c0.199,0.5,2.1,5.3,8.699,5.3c2.101,0,3.9-0.6,5.4-1.7c3.7-2.6,4-6.699,4-11.3v-37.6
		c0-6.101-0.3-9.7-1.7-12.5C249.6,340.301,248.8,338.9,246.9,337.9z"/>
	<path fill="#FCB415" d="M283.3,0L0,193.8V456.9l558.4-0.8V193.8L283.3,0z M300.4,111.2h22.7v5.7h-16.7v20.5h13.7v5.6h-13.7v23H323
		v5.7h-22.6V111.2L300.4,111.2z M301.5,274l9.4-61.3h21.5l11,61.1l4.5-61.1H365.8l-9.3,77.1h-24.1l-10.5-60.3l-10,60.3h-24.2
		l-9.8-77.1h17.7L301.5,274z M267.6,111.2h6v26h13v-26h6.1v60.4h-6.1v-28.9h-13v28.9h-6V111.2z M237.4,111.2h26.7v5.7H253.8v54.8
		h-6.1v-54.8h-10.2v-5.7H237.4z M93.1,285.4c-3.5,3.399-8.601,5.5-19,5.5c-12.301,0-19-3.2-22-8.601C50.1,278.6,50,273.8,50,269.7
		v-4.6h18.4v6.1c0,1.7,0,6.1,5.5,6.1c5.2,0,5.899-2.899,5.899-5.3c0-3.2-0.1-4.8-0.899-6.1c-1-1.601-2.8-2.9-6.101-5.3L61.7,252.5
		c-2-1.399-3.9-2.7-5.8-4.399c-3.2-2.9-5-6.2-5-14.5c0-1.2,0-3.601,0.399-6.7c0.301-2.7,1.2-9.9,9-13.3
		C64.4,211.7,70.6,211.3,74.9,211.3c3.5,0,6.7,0.2,10.2,1c6.3,1.4,8.5,4.801,9.699,7.4c2.301,5.1,2,11.2,1.9,16.7H79v-5.5
		c0-3.9-0.399-6.4-5.2-6.4c-0.5,0-1.699,0-2.899,0.9c-1.9,1.3-1.601,4-1.601,6c0,2.1-0.1,4,1.101,5.7
		C70.8,237.8,71.5,238.3,72.8,239.3l15.801,11c0.899,0.5,3.3,2.101,5.5,4.301c3.1,3.1,4.5,6.399,4.5,14.699
		C98.5,275.3,97.8,280.9,93.1,285.4z M138.5,289.8l-2.6-17.6h-14.3l-2.7,17.6h-18.2l15.6-77.1h24.9l15.6,77.1H138.5z M178.1,289.8
		h-15.7v-77.1H180.8l16.2,50v-50h16v77.1h-18.8l-16-50.199V289.8H178.1z M215.4,409.9H208v-38.1H190.1v38.1H182.8v-79.1h7.301v34.3
		H208v-34.3h7.4V409.9z M258.8,393.2c0,4-0.399,7.3-2.399,10.601c-1.2,2.1-5.101,7.1-14.4,7.1c-2.6,0-9-0.5-12.8-5.1
		c-3.3-4.2-3.6-8.9-3.6-13.4V349c0-3.5,0.399-6.699,1.3-9.1c2.1-6.2,7.8-10,15.3-10h0.4c4.1,0,7.6,1,10.399,3
		c5.9,4.5,5.9,11.5,5.9,17.6L258.8,393.2L258.8,393.2z M252.8,289.8H223.9v-77.1H252c0.5,0,5.5,0,8.601,0.7
		c2.1,0.399,7.1,1.7,10.3,6.8c1.7,2.7,2.5,5.5,2.5,11.8v38.4c0,4.8-0.2,10-3.5,14C265.7,289.4,258.8,289.8,252.8,289.8z
		 M301.8,393.6c0,3.399-0.399,5.899-1.199,8.1c-3.2,8.601-11.801,9.5-15.4,9.5c-1.9,0-6.7-0.3-10.3-3c-0.9-0.6-1.8-1.5-2.601-2.8
		c-3.3-4.3-3.199-9.2-3.199-13.899v-0.9v-59.8h7.3v60.7c0,4.899,0.399,7.3,1.6,9.199c1,1.601,3.2,3.5,7.7,3.5c3,0,4.8-0.899,5.7-1.6
		c3.1-2.4,3.1-6,3.1-13.4v-58.3h7.4v62.7H301.8z M341.7,405c-1.9,2.801-5.9,6.101-13.9,6.101c-3.6,0-7.1-0.7-9.3-2
		c-0.7-0.4-1.6-1-2.7-2c-1.899-1.601-3.199-3.5-4.1-6c-0.8-2.3-0.9-4.101-0.9-6.601V382.6h7.4v7.2c0,0.6,0,1.1,0,1.6
		c0,1.101,0,2,0,3.101c0.4,6.6,3.8,9.8,10.3,9.8c0.8,0,3,0,5-1.3c1.601-1,3.8-3.101,3.8-10.4c0-5.8-1.3-8.4-2.6-10.5
		c-2.8-4.3-7.9-9.2-8.5-9.7c-4.3-4.2-7.2-7.399-9-9.899c-3.1-4.101-4.6-9-4.6-14.9c0-1.1,0-3.9,0.5-6c1.399-7.9,6.6-12.1,15.1-12.1
		c3.9,0,7.1,0.8,9.6,2.3c5.801,3.8,5.801,10.8,5.801,16.5v6.6H336.3v-7.899c0-2.7,0-3.5-0.3-4.9c-0.7-4-3.3-6-7.7-6
		c-0.699,0-3,0-4.899,1.2c-2.2,1.399-3.3,4.5-3.3,9.399c0,7,1.8,9.601,6.399,14.9c1.7,2,3.5,3.9,5.2,5.8l1,1
		c2.3,2.3,4.8,4.8,6.9,7.5c3.699,4.7,5.1,9,5.1,15.8C344.6,397.7,343.6,402.1,341.7,405z M382.8,337.7h-22v27.7H378.9v6.7H360.8
		v31.1h21.9v6.801h-29.2V330.9h29.3V337.7L382.8,337.7z M390.2,289.8h-18.7v-77.1h18.7V289.8z M449.7,267.3
		c0,6.601-0.199,13.301-5.5,18.2c-5.3,5-13.5,5.2-20.3,5.2c-9.7,0-14.7-1.6-18.3-4.7c-0.8-0.5-2.4-2-3.6-4.399
		c-1.301-2.601-1.9-5.101-1.9-10.801v-38c0-6.1,0.5-11,5.1-15.5c3.5-3.5,9-6.1,19.301-6.1c13.5,0,20.199,4.5,22.899,10.4
		c1.601,3.399,1.7,6.699,1.7,10.3v9.3h-18.3v-9.7c0-1.1,0-2.1-0.2-3.2c-0.8-3.199-3.5-3.6-6.2-3.6c-1.399,0-2.6,0.1-3.7,0.9
		c-2.399,1.6-2.1,5.699-2.1,6.1V270c0,4.9,0.7,7.601,6.2,7.601c0.2,0,1.6,0,2.7-0.301c3.3-1.199,3.199-4.6,3.199-7.3v-9.6h18.9
		L449.7,267.3L449.7,267.3z M508.4,289.8h-18.7v-32.3h-13v32.3h-18.6v-77.1h18.6v31.1h13v-31.1h18.7V289.8z"/>
</g>
</svg>
