<?xml version="1.0" encoding="utf-8"?>
<!-- Generator: Adobe Illustrator 15.0.0, SVG Export Plug-In . SVG Version: 6.00 Build 0)  -->
<!DOCTYPE svg PUBLIC "-//W3C//DTD SVG 1.1//EN" "http://www.w3.org/Graphics/SVG/1.1/DTD/svg11.dtd" [
	<!ENTITY ns_flows "http://ns.adobe.com/Flows/1.0/">
	<!ENTITY ns_extend "http://ns.adobe.com/Extensibility/1.0/">
	<!ENTITY ns_ai "http://ns.adobe.com/AdobeIllustrator/10.0/">
	<!ENTITY ns_graphs "http://ns.adobe.com/Graphs/1.0/">
]>
<svg version="1.1" id="Layer_1" xmlns:x="&ns_extend;" xmlns:i="&ns_ai;" xmlns:graph="&ns_graphs;"
	 xmlns="http://www.w3.org/2000/svg" xmlns:xlink="http://www.w3.org/1999/xlink" xmlns:a="http://ns.adobe.com/AdobeSVGViewerExtensions/3.0/"
	 x="0px" y="0px" width="96.1px" height="51.1px" viewBox="0 0 96.1 51.1" enable-background="new 0 0 96.1 51.1"
	 xml:space="preserve">
<g>
	<polygon fill="#EEE7D3" points="67.9,0 0,0 0,51.1 96.1,51.1 	"/>
	<g>
		<defs>
			<polygon id="SVGID_1_" points="67.9,0 0,0 0,51.1 96.1,51.1 			"/>
		</defs>
		<clipPath id="SVGID_2_">
			<use xlink:href="#SVGID_1_"  overflow="visible"/>
		</clipPath>
		<g clip-path="url(#SVGID_2_)">
			<g>
				<path fill="#EAB766" d="M8.1,58.8c-1.3,0.8-3,0.5-3.8-0.8L-6.4,42c-0.8-1.3-0.5-3,0.8-3.8l37.5-25c1.3-0.8,3-0.5,3.8,0.8
					l10.7,16c0.8,1.3,0.5,3-0.8,3.8L8.1,58.8z"/>
			</g>
			<path fill="#DDC397" d="M47.8,28.9l2.8-1.9c0.8-0.5,1-1.5,0.5-2.3l-8.8-13.2c-0.5-0.8-1.5-1-2.3-0.5l-2.8,1.9
				c-0.1,0.1-0.2,0.2-0.3,0.3L47.5,29C47.6,29,47.7,28.9,47.8,28.9z"/>
			<polygon fill="#EAB766" points="46.7,13.2 51.1,19.9 61.2,10.3 59.5,7.8 			"/>
			<path fill="none" d="M-34.2,54.9l1.6,2.3C-32.9,56.5-33.4,55.7-34.2,54.9z"/>
			<path fill="#DB9C5D" d="M8,58.7l37.5-25c1.3-0.8,1.6-2.6,0.8-3.8l-1.9-2.8c1.5,4-3.7,6.1-3.7,6.1L8,54c-4.2,2.5-7.3-1.3-8-2.3
				L4.2,58C5,59.2,6.7,59.6,8,58.7z"/>
			<polygon fill="#EAB766" points="-34.2,54.9 -34.2,54.9 -34.2,54.9 			"/>
		</g>
	</g>
</g>
</svg>
