<?xml version="1.0" encoding="utf-8"?>
<!-- Generator: Adobe Illustrator 15.0.0, SVG Export Plug-In . SVG Version: 6.00 Build 0)  -->
<!DOCTYPE svg PUBLIC "-//W3C//DTD SVG 1.1//EN" "http://www.w3.org/Graphics/SVG/1.1/DTD/svg11.dtd" [
	<!ENTITY ns_flows "http://ns.adobe.com/Flows/1.0/">
	<!ENTITY ns_extend "http://ns.adobe.com/Extensibility/1.0/">
	<!ENTITY ns_ai "http://ns.adobe.com/AdobeIllustrator/10.0/">
	<!ENTITY ns_graphs "http://ns.adobe.com/Graphs/1.0/">
]>
<svg version="1.1" id="Layer_1" xmlns:x="&ns_extend;" xmlns:i="&ns_ai;" xmlns:graph="&ns_graphs;"
	 xmlns="http://www.w3.org/2000/svg" xmlns:xlink="http://www.w3.org/1999/xlink" xmlns:a="http://ns.adobe.com/AdobeSVGViewerExtensions/3.0/"
	 x="0px" y="0px" width="96.1px" height="51.1px" viewBox="0 0 96.1 51.1" enable-background="new 0 0 96.1 51.1"
	 xml:space="preserve">
<g>
	<polygon fill="#EEE7D3" points="67.9,0 0,0 0,51.1 96.1,51.1 	"/>
	<g>
		<defs>
			<polygon id="SVGID_1_" points="67.9,0 0,0 0,51.1 96.1,51.1 			"/>
		</defs>
		<clipPath id="SVGID_2_">
			<use xlink:href="#SVGID_1_"  overflow="visible"/>
		</clipPath>
	</g>
	<g>
		<defs>
			<polygon id="SVGID_3_" points="67.9,0 0,0 0,51.1 96.1,51.1 			"/>
		</defs>
		<clipPath id="SVGID_4_">
			<use xlink:href="#SVGID_3_"  overflow="visible"/>
		</clipPath>
		<g clip-path="url(#SVGID_4_)">
			<g>
				<path fill="#F3A523" stroke="#EEE7D3" stroke-width="0.5714" d="M29.7,22.6l-1.8-1.3c-0.6-0.4-0.5-1.3,0.1-2L38.7,8.2
					c0.6-0.7,1.6-0.9,2.2-0.5L42.8,9c0.6,0.4,0.5,1.3-0.1,2L31.9,22.2C31.3,22.9,30.3,23.1,29.7,22.6z"/>
			</g>
			<g>
				<path fill="#F3A523" stroke="#EEE7D3" stroke-width="0.5714" d="M39.5,44.1L38.8,42c-0.2-0.7,0.2-1.6,1.1-2l13.5-6.7
					c0.8-0.4,1.7-0.2,2,0.4l1.2,1.7c0.3,0.7-0.2,1.6-1.1,2l-13.8,7.1C40.7,44.9,39.8,44.8,39.5,44.1z"/>
			</g>
			<g>
				<path fill="#F3A523" stroke="#EEE7D3" stroke-width="0.5714" d="M44.9,33.1l-1.3-1.8c-0.4-0.6-0.1-1.5,0.7-2l12.8-9.1
					c0.8-0.5,1.7-0.5,2.1,0l1.3,1.8c0.4,0.6,0.1,1.5-0.7,2l-12.8,9.1C46.3,33.7,45.3,33.7,44.9,33.1z"/>
			</g>
			<g>
				<path fill="#F3A523" stroke="#EEE7D3" stroke-width="0.5714" d="M31,27.5l-1.8-2.5c-0.4-0.6-0.1-1.5,0.7-2l15.4-11.1
					c0.8-0.6,1.7-0.5,2.1,0l1.8,2.5c0.4,0.6,0.1,1.5-0.6,2L33.2,27.6C32.4,28.1,31.4,28.1,31,27.5z"/>
			</g>
			<g>
				<path fill="#F3A523" stroke="#EEE7D3" stroke-width="0.5714" d="M35.8,29.6L34.3,28c-0.5-0.5-0.3-1.4,0.5-2L46.9,16
					c0.7-0.6,1.7-0.7,2.2-0.1l1.5,1.6c0.5,0.5,0.3,1.4-0.5,2L38,29.5C37.3,30.1,36.3,30.1,35.8,29.6z"/>
			</g>
			<g>
				<path fill="#F3A523" stroke="#EEE7D3" stroke-width="0.5714" d="M38.7,36l-1.5-1.6c-0.5-0.5-0.3-1.4,0.5-2l12.1-9.9
					c0.7-0.6,1.7-0.7,2.2-0.1l1.5,1.6c0.5,0.5,0.3,1.4-0.5,2l-12.1,9.9C40.2,36.5,39.2,36.5,38.7,36z"/>
			</g>
			<g>
				<path fill="#F3A523" stroke="#EEE7D3" stroke-width="0.6002" d="M39.7,39.2L39,37c-0.2-0.7,0.4-1.6,1.3-2.1l15.3-7.6
					c0.9-0.5,1.8-0.3,2,0.4l0.6,2.2c0.2,0.7-0.4,1.6-1.3,2.1l-15.3,7.6C40.8,40.1,39.9,39.9,39.7,39.2z"/>
			</g>
			<g>
				<path fill="#F3A523" stroke="#EEE7D3" stroke-width="0.5714" d="M27.3,20.2l-1.8-1.3c-0.6-0.4-0.5-1.3,0.1-2L36.3,5.8
					c0.6-0.7,1.6-0.9,2.2-0.5l1.8,1.3c0.6,0.4,0.5,1.3-0.1,2L29.5,19.8C28.9,20.5,27.9,20.7,27.3,20.2z"/>
			</g>
			<g>
				<path fill="#F3A523" stroke="#EEE7D3" stroke-width="0.5714" d="M39.8,30l-1.3-1.8c-0.4-0.6-0.1-1.5,0.7-2L52,17.1
					c0.8-0.5,1.7-0.5,2.1,0l1.3,1.8c0.4,0.6,0.1,1.5-0.7,2L42,30.1C41.2,30.6,40.2,30.6,39.8,30z"/>
			</g>
			<g>
				<path fill="#F3A523" stroke="#EEE7D3" stroke-width="0.5714" d="M32.9,34.3l-1.1-1.9c-0.3-0.6,0-1.5,0.8-2l13.3-8.3
					c0.8-0.5,1.7-0.4,2.1,0.2l1.1,1.9c0.3,0.6,0,1.5-0.8,2l-13.3,8.3C34.1,35,33.2,34.9,32.9,34.3z"/>
			</g>
		</g>
		<path clip-path="url(#SVGID_4_)" fill="#EAB766" stroke="#EEE7D3" stroke-width="1.1428" d="M47.3,45.5l-2.8-3.9l-0.9-1.3
			l-14-19.6l-0.9-1.3l-2.8-3.9c-0.6-0.8-1.8-0.9-2.6-0.2L-6.7,47.8L4.7,64.6l41.9-16.6C47.6,47.5,47.9,46.3,47.3,45.5z"/>
		<path clip-path="url(#SVGID_4_)" fill="#DB9C5D" d="M44.9,46.8c1-0.4,1.3-1.6,0.7-2.5l-2.8-3.9c-0.1,1.5-1.2,2.4-1.2,2.4L9.6,60
			c-2.6,1.2-5.4-0.6-5.4-0.6l-0.4,0.3l4,5.5L44.9,46.8z"/>
	</g>
</g>
</svg>
