<?xml version="1.0" encoding="utf-8"?>
<!-- Generator: Adobe Illustrator 15.0.0, SVG Export Plug-In . SVG Version: 6.00 Build 0)  -->
<!DOCTYPE svg PUBLIC "-//W3C//DTD SVG 1.1//EN" "http://www.w3.org/Graphics/SVG/1.1/DTD/svg11.dtd" [
	<!ENTITY ns_flows "http://ns.adobe.com/Flows/1.0/">
	<!ENTITY ns_extend "http://ns.adobe.com/Extensibility/1.0/">
	<!ENTITY ns_ai "http://ns.adobe.com/AdobeIllustrator/10.0/">
	<!ENTITY ns_graphs "http://ns.adobe.com/Graphs/1.0/">
]>
<svg version="1.1" id="Layer_1" xmlns:x="&ns_extend;" xmlns:i="&ns_ai;" xmlns:graph="&ns_graphs;"
	 xmlns="http://www.w3.org/2000/svg" xmlns:xlink="http://www.w3.org/1999/xlink" xmlns:a="http://ns.adobe.com/AdobeSVGViewerExtensions/3.0/"
	 x="0px" y="0px" width="96.1px" height="51.1px" viewBox="0 0 96.1 51.1" enable-background="new 0 0 96.1 51.1"
	 xml:space="preserve">
<g>
	<polygon fill="#EEE7D3" points="67.9,0 0,0 0,51.1 96.1,51.1 	"/>
	<g>
		<defs>
			<polygon id="SVGID_1_" points="67.9,0 0,0 0,51.1 96.1,51.1 			"/>
		</defs>
		<clipPath id="SVGID_2_">
			<use xlink:href="#SVGID_1_"  overflow="visible"/>
		</clipPath>
		<g clip-path="url(#SVGID_2_)">
			<path fill="#C47F2A" d="M29,22.5c-1.4-2-1.8-4.4-1.4-6.8c1-5.4,5.8-6.2,11.4-5.1c3,0.6,5.6,1.5,7.2,3.2c2.1-0.9,4.9-0.9,7.9-0.3
				c5.6,1.1,9.7,3.5,8.7,8.9c-0.5,2.4-1.7,4.5-3.8,5.8L56.6,42c-0.7,3.5,0.6,6.8-2.9,6.1L26.8,43c-3.5-0.7-1.1-3.2-0.5-6.8L29,22.5
				L29,22.5z"/>
			<path fill="#C47F2A" d="M26.9,43.1c-3.5-0.7-1.1-3.2-0.5-6.8L29,22.5c-1.4-2-1.8-4.4-1.4-6.8c1-5.4,5.8-6.2,11.4-5.1
				c3,0.6,5.6,1.5,7.2,3.2c2.1-0.9,5-0.9,8-0.3"/>
			<path fill="#EAB766" d="M31.3,23.4c-0.9-1.6-1.3-3.5-0.9-5.5c0.8-4.4,4.9-5,9.4-4.1c2.4,0.5,4.6,1.3,6,2.6c1.7-0.8,4-0.7,6.5-0.2
				c4.6,0.9,8.2,2.9,7.4,7.3c-0.4,2-1.4,3.6-2.8,4.8l-2.1,11.3c-0.5,2.9-0.1,6.4-3,5.9l-21.9-4.1c-2.9-0.5-1.2-3.7-0.6-6.6
				L31.3,23.4L31.3,23.4z"/>
			<path fill="#DB9C5D" d="M28.4,35.1l2.4-11.3l-0.2-0.9c-0.9-1.6-0.9-3.5-0.5-5.5c0.8-4.4,4.9-5,9.5-4.1c0.6,0.1,2.3,0.6,2.9,0.7
				c-0.1,0-8.3-0.9-9.6,2.7c0,0-1.1,2.5,0.4,5.8c0,0-0.3,2.9-0.7,4.5l-2.4,10.7c0,0-0.7,2.8,2.8,4.5l-3.4-0.6
				C26.7,41,27.8,37.9,28.4,35.1z"/>
		</g>
		<g clip-path="url(#SVGID_2_)">
			<path fill="#C47F2A" d="M6,25.7c0-2.6,1.1-4.9,3-6.6c4.2-4,8.8-1.7,12.9,2.7c2.2,2.3,3.8,4.8,4.2,7.2c2.4,0.5,4.7,2.3,7,4.6
				c4.1,4.4,6.1,9,1.9,13c-1.9,1.8-4.2,2.8-6.8,2.7L17.5,59.4c-2.8,2.6-3.6,6.2-6.3,3.4L-8.6,41.9c-2.6-2.8,1-3.4,3.8-6.1L6,25.7
				L6,25.7z"/>
			<path fill="#C47F2A" d="M-8.6,42c-2.6-2.8,1-3.4,3.8-6.1L6,25.7c0-2.6,1.1-4.9,3-6.6c4.2-4,8.8-1.7,12.9,2.7
				c2.2,2.3,3.8,4.8,4.2,7.2c2.4,0.5,4.8,2.3,7,4.7"/>
			<path fill="#EAB766" d="M7.3,27.9c0.2-1.9,1.1-3.8,2.7-5.3c3.4-3.2,7.2-1.3,10.6,2.3c1.8,1.9,3.2,4,3.5,5.9
				c1.9,0.4,3.8,1.9,5.7,3.8c3.4,3.6,5.3,7.5,1.8,10.8c-1.5,1.5-3.5,2.2-5.4,2.4l-8.8,8.3c-2.3,2.1-4.1,5.4-6.2,3.2l-16.1-17
				c-2.1-2.3,1.3-3.9,3.5-6L7.3,27.9L7.3,27.9z"/>
			<path fill="#DB9C5D" d="M-2.4,36.1l9-8.1L7,27.1c0.2-1.9,1.4-3.5,3-5c3.4-3.2,7.2-1.3,10.6,2.3c0.4,0.5,1.6,1.9,2,2.4
				c-0.1,0-6.6-5.9-9.9-3.7c0,0-2.4,1.5-3.2,5.2c0,0-2,2.3-3.4,3.4l-8.6,7.7c0,0-2.4,2-0.4,5.6l-2.5-2.6
				C-7.5,40.1-4.6,38.2-2.4,36.1z"/>
		</g>
	</g>
</g>
</svg>
