<?xml version="1.0" encoding="utf-8"?>
<!-- Generator: Adobe Illustrator 15.0.0, SVG Export Plug-In . SVG Version: 6.00 Build 0)  -->
<!DOCTYPE svg PUBLIC "-//W3C//DTD SVG 1.1//EN" "http://www.w3.org/Graphics/SVG/1.1/DTD/svg11.dtd">
<svg version="1.1" id="Layer_1" xmlns="http://www.w3.org/2000/svg" xmlns:xlink="http://www.w3.org/1999/xlink" x="0px" y="0px"
	 width="72px" height="76px" viewBox="0 0 72 76" enable-background="new 0 0 72 76" xml:space="preserve">
<path fill="#EEE6D2" d="M60.6,25.5c0,0.5,0,1.1,0,1.6c0,16.8-12.8,36.1-36.1,36.1c-7.2,0-13.8-2.1-19.5-5.7c1,0.1,2,0.2,3,0.2
	c5.9,0,11.4-2,15.8-5.4c-5.6-0.1-10.3-3.8-11.9-8.8c0.8,0.2,1.6,0.2,2.4,0.2c1.2,0,2.3-0.2,3.3-0.4C11.8,42,7.5,37,7.5,30.8
	c0-0.1,0-0.1,0-0.2c1.7,0.9,3.7,1.5,5.8,1.6C9.8,29.9,7.5,26,7.5,21.5c0-2.3,0.6-4.5,1.7-6.4c6.3,7.7,15.6,12.7,26.2,13.3
	c-0.2-0.9-0.3-1.9-0.3-2.9c0-7,5.7-12.7,12.7-12.7c3.7,0,7,1.5,9.3,4c2.9-0.6,5.6-1.6,8.1-3.1c-1,3-3,5.5-5.6,7c2.6-0.3,5-1,7.3-2
	C65.3,21.4,63.1,23.6,60.6,25.5z"/>
</svg>
